<mxfile host="65bd71144e">
    <diagram id="gNyp_4Ta9475FA_3y9Ey" name="Page-1">
        <mxGraphModel dx="1198" dy="449" grid="1" gridSize="10" guides="1" tooltips="1" connect="1" arrows="1" fold="1" page="1" pageScale="1" pageWidth="850" pageHeight="1100" math="0" shadow="0">
            <root>
                <mxCell id="0"/>
                <mxCell id="1" parent="0"/>
                <mxCell id="172" value="sd Model.Pump Redirect" style="shape=umlFrame;whiteSpace=wrap;html=1;width=200;height=15;" vertex="1" parent="1">
                    <mxGeometry x="30" y="200" width="870" height="570" as="geometry"/>
                </mxCell>
                <mxCell id="173" style="edgeStyle=none;html=1;exitX=0.5;exitY=0;exitDx=0;exitDy=0;entryX=0.5;entryY=1;entryDx=0;entryDy=0;strokeColor=default;fontSize=11;elbow=vertical;rounded=0;endArrow=none;endFill=0;" edge="1" parent="1" source="196" target="197">
                    <mxGeometry relative="1" as="geometry"/>
                </mxCell>
                <mxCell id="174" style="edgeStyle=none;rounded=0;html=1;exitX=0;exitY=0.5;exitDx=0;exitDy=0;entryX=1;entryY=0.5;entryDx=0;entryDy=0;strokeColor=default;fontSize=11;endArrow=none;endFill=0;elbow=vertical;" edge="1" parent="1" source="196" target="203">
                    <mxGeometry relative="1" as="geometry"/>
                </mxCell>
                <mxCell id="175" style="edgeStyle=none;rounded=0;html=1;exitX=0.5;exitY=1;exitDx=0;exitDy=0;entryX=0.5;entryY=0;entryDx=0;entryDy=0;strokeColor=default;fontSize=11;endArrow=none;endFill=0;elbow=vertical;" edge="1" parent="1" source="196" target="202">
                    <mxGeometry relative="1" as="geometry"/>
                </mxCell>
                <mxCell id="176" style="edgeStyle=none;rounded=0;html=1;exitX=0;exitY=1;exitDx=0;exitDy=0;entryX=1;entryY=0;entryDx=0;entryDy=0;strokeColor=default;fontSize=11;endArrow=none;endFill=0;elbow=vertical;" edge="1" parent="1" source="196" target="200">
                    <mxGeometry relative="1" as="geometry">
                        <Array as="points">
                            <mxPoint x="320" y="700"/>
                        </Array>
                    </mxGeometry>
                </mxCell>
                <mxCell id="177" style="edgeStyle=none;rounded=0;html=1;exitX=1;exitY=0.5;exitDx=0;exitDy=0;entryX=0;entryY=0.5;entryDx=0;entryDy=0;strokeColor=default;fontSize=11;endArrow=none;endFill=0;elbow=vertical;" edge="1" parent="1" source="196" target="204">
                    <mxGeometry relative="1" as="geometry"/>
                </mxCell>
                <mxCell id="178" style="edgeStyle=none;rounded=0;html=1;exitX=1;exitY=0;exitDx=0;exitDy=0;entryX=0;entryY=1;entryDx=0;entryDy=0;strokeColor=default;fontSize=11;endArrow=none;endFill=0;elbow=vertical;" edge="1" parent="1" source="196" target="198">
                    <mxGeometry relative="1" as="geometry">
                        <Array as="points">
                            <mxPoint x="580" y="470"/>
                            <mxPoint x="580" y="290"/>
                            <mxPoint x="660" y="290"/>
                        </Array>
                    </mxGeometry>
                </mxCell>
                <mxCell id="179" style="edgeStyle=none;rounded=0;html=1;exitX=1;exitY=1;exitDx=0;exitDy=0;entryX=0;entryY=0;entryDx=0;entryDy=0;strokeColor=default;fontSize=11;endArrow=none;endFill=0;elbow=vertical;" edge="1" parent="1" source="196" target="199">
                    <mxGeometry relative="1" as="geometry">
                        <Array as="points">
                            <mxPoint x="540" y="500"/>
                            <mxPoint x="540" y="610"/>
                            <mxPoint x="540" y="700"/>
                        </Array>
                    </mxGeometry>
                </mxCell>
                <mxCell id="180" style="edgeStyle=none;rounded=0;html=1;exitX=0;exitY=0.5;exitDx=0;exitDy=0;entryX=1;entryY=1;entryDx=0;entryDy=0;strokeColor=default;fontSize=11;endArrow=none;endFill=0;elbow=vertical;" edge="1" parent="1" source="196" target="203">
                    <mxGeometry relative="1" as="geometry">
                        <Array as="points">
                            <mxPoint x="290" y="485"/>
                            <mxPoint x="290" y="520"/>
                            <mxPoint x="133" y="520"/>
                        </Array>
                    </mxGeometry>
                </mxCell>
                <mxCell id="181" style="edgeStyle=none;rounded=0;html=1;exitX=1;exitY=0.5;exitDx=0;exitDy=0;entryX=0;entryY=1;entryDx=0;entryDy=0;strokeColor=default;fontSize=9;endArrow=none;endFill=0;elbow=vertical;" edge="1" parent="1" source="196" target="204">
                    <mxGeometry relative="1" as="geometry">
                        <Array as="points">
                            <mxPoint x="600" y="485"/>
                            <mxPoint x="600" y="530"/>
                            <mxPoint x="743" y="530"/>
                        </Array>
                    </mxGeometry>
                </mxCell>
                <mxCell id="182" style="edgeStyle=none;rounded=0;html=1;exitX=0;exitY=0.5;exitDx=0;exitDy=0;entryX=1;entryY=0;entryDx=0;entryDy=0;strokeColor=default;fontSize=9;endArrow=none;endFill=0;elbow=vertical;" edge="1" parent="1" source="196" target="203">
                    <mxGeometry relative="1" as="geometry">
                        <Array as="points">
                            <mxPoint x="260" y="485"/>
                            <mxPoint x="260" y="460"/>
                            <mxPoint x="150" y="460"/>
                            <mxPoint x="133" y="460"/>
                        </Array>
                    </mxGeometry>
                </mxCell>
                <mxCell id="183" style="edgeStyle=none;rounded=0;html=1;exitX=1;exitY=0.5;exitDx=0;exitDy=0;entryX=0;entryY=0;entryDx=0;entryDy=0;strokeColor=default;fontSize=9;endArrow=none;endFill=0;elbow=vertical;" edge="1" parent="1" source="196" target="204">
                    <mxGeometry relative="1" as="geometry">
                        <Array as="points">
                            <mxPoint x="620" y="485"/>
                            <mxPoint x="620" y="450"/>
                            <mxPoint x="743" y="450"/>
                        </Array>
                    </mxGeometry>
                </mxCell>
                <mxCell id="184" style="edgeStyle=none;rounded=0;html=1;entryX=1;entryY=1;entryDx=0;entryDy=0;strokeColor=default;fontSize=9;endArrow=none;endFill=0;elbow=vertical;" edge="1" parent="1" target="197">
                    <mxGeometry relative="1" as="geometry">
                        <mxPoint x="480" y="470" as="sourcePoint"/>
                        <Array as="points">
                            <mxPoint x="480" y="380"/>
                        </Array>
                    </mxGeometry>
                </mxCell>
                <mxCell id="185" style="edgeStyle=none;rounded=0;html=1;exitX=0;exitY=0;exitDx=0;exitDy=0;entryX=0;entryY=1;entryDx=0;entryDy=0;strokeColor=default;fontSize=9;endArrow=none;endFill=0;elbow=vertical;" edge="1" parent="1" source="196" target="197">
                    <mxGeometry relative="1" as="geometry">
                        <Array as="points"/>
                    </mxGeometry>
                </mxCell>
                <mxCell id="186" style="edgeStyle=none;rounded=0;html=1;exitX=0.964;exitY=-0.066;exitDx=0;exitDy=0;entryX=1;entryY=1;entryDx=0;entryDy=0;strokeColor=default;fontSize=9;endArrow=none;endFill=0;elbow=vertical;exitPerimeter=0;" edge="1" parent="1" source="196" target="197">
                    <mxGeometry relative="1" as="geometry">
                        <Array as="points">
                            <mxPoint x="520" y="440"/>
                            <mxPoint x="550" y="420"/>
                            <mxPoint x="550" y="350"/>
                            <mxPoint x="550" y="290"/>
                        </Array>
                    </mxGeometry>
                </mxCell>
                <mxCell id="187" style="edgeStyle=none;rounded=0;html=1;exitX=0;exitY=0;exitDx=0;exitDy=0;entryX=0;entryY=1;entryDx=0;entryDy=0;strokeColor=default;fontSize=9;endArrow=none;endFill=0;elbow=vertical;" edge="1" parent="1" source="196" target="197">
                    <mxGeometry relative="1" as="geometry">
                        <Array as="points">
                            <mxPoint x="360" y="420"/>
                            <mxPoint x="360" y="290"/>
                        </Array>
                    </mxGeometry>
                </mxCell>
                <mxCell id="188" style="edgeStyle=none;rounded=0;html=1;exitX=0;exitY=0;exitDx=0;exitDy=0;entryX=0.5;entryY=1;entryDx=0;entryDy=0;strokeColor=default;fontSize=9;endArrow=none;endFill=0;elbow=vertical;" edge="1" parent="1" source="196" target="201">
                    <mxGeometry relative="1" as="geometry">
                        <Array as="points">
                            <mxPoint x="330" y="470"/>
                            <mxPoint x="330" y="340"/>
                            <mxPoint x="96" y="340"/>
                        </Array>
                    </mxGeometry>
                </mxCell>
                <mxCell id="189" style="edgeStyle=none;rounded=0;html=1;exitX=0;exitY=0;exitDx=0;exitDy=0;entryX=0;entryY=1;entryDx=0;entryDy=0;strokeColor=default;fontSize=9;endArrow=none;endFill=0;elbow=vertical;" edge="1" parent="1" source="196" target="201">
                    <mxGeometry relative="1" as="geometry">
                        <Array as="points">
                            <mxPoint x="330" y="470"/>
                            <mxPoint x="330" y="410"/>
                            <mxPoint x="50" y="410"/>
                        </Array>
                    </mxGeometry>
                </mxCell>
                <mxCell id="190" style="edgeStyle=none;rounded=0;html=1;exitX=1;exitY=0;exitDx=0;exitDy=0;entryX=0.5;entryY=1;entryDx=0;entryDy=0;strokeColor=default;fontSize=9;endArrow=none;endFill=0;elbow=vertical;" edge="1" parent="1" source="196" target="198">
                    <mxGeometry relative="1" as="geometry">
                        <Array as="points">
                            <mxPoint x="580" y="470"/>
                            <mxPoint x="580" y="370"/>
                            <mxPoint x="784" y="370"/>
                        </Array>
                    </mxGeometry>
                </mxCell>
                <mxCell id="191" style="edgeStyle=none;rounded=0;html=1;exitX=1;exitY=0;exitDx=0;exitDy=0;entryX=1;entryY=1;entryDx=0;entryDy=0;strokeColor=default;fontSize=9;endArrow=none;endFill=0;elbow=vertical;" edge="1" parent="1" source="196" target="198">
                    <mxGeometry relative="1" as="geometry">
                        <Array as="points">
                            <mxPoint x="580" y="470"/>
                            <mxPoint x="580" y="410"/>
                            <mxPoint x="825" y="410"/>
                        </Array>
                    </mxGeometry>
                </mxCell>
                <mxCell id="192" style="edgeStyle=none;rounded=0;html=1;exitX=0;exitY=1;exitDx=0;exitDy=0;entryX=0.5;entryY=0;entryDx=0;entryDy=0;strokeColor=default;fontSize=9;endArrow=none;endFill=0;elbow=vertical;" edge="1" parent="1" source="196" target="200">
                    <mxGeometry relative="1" as="geometry">
                        <Array as="points">
                            <mxPoint x="340" y="650"/>
                            <mxPoint x="105" y="650"/>
                        </Array>
                    </mxGeometry>
                </mxCell>
                <mxCell id="193" style="edgeStyle=none;rounded=0;html=1;exitX=0;exitY=1;exitDx=0;exitDy=0;entryX=0;entryY=0;entryDx=0;entryDy=0;strokeColor=default;fontSize=9;endArrow=none;endFill=0;elbow=vertical;" edge="1" parent="1" source="196" target="200">
                    <mxGeometry relative="1" as="geometry">
                        <Array as="points">
                            <mxPoint x="360" y="600"/>
                            <mxPoint x="60" y="600"/>
                        </Array>
                    </mxGeometry>
                </mxCell>
                <mxCell id="194" style="edgeStyle=none;rounded=0;html=1;exitX=1;exitY=1;exitDx=0;exitDy=0;entryX=0.5;entryY=0;entryDx=0;entryDy=0;strokeColor=default;fontSize=9;endArrow=none;endFill=0;elbow=vertical;" edge="1" parent="1" source="196" target="199">
                    <mxGeometry relative="1" as="geometry">
                        <Array as="points">
                            <mxPoint x="540" y="500"/>
                            <mxPoint x="540" y="650"/>
                            <mxPoint x="791" y="650"/>
                        </Array>
                    </mxGeometry>
                </mxCell>
                <mxCell id="195" style="edgeStyle=none;rounded=0;html=1;exitX=1;exitY=1;exitDx=0;exitDy=0;entryX=1;entryY=0;entryDx=0;entryDy=0;strokeColor=default;fontSize=9;endArrow=none;endFill=0;elbow=vertical;" edge="1" parent="1" source="196" target="199">
                    <mxGeometry relative="1" as="geometry">
                        <Array as="points">
                            <mxPoint x="540" y="500"/>
                            <mxPoint x="540" y="610"/>
                            <mxPoint x="840" y="610"/>
                        </Array>
                    </mxGeometry>
                </mxCell>
                <mxCell id="196" value="main" style="html=1;" vertex="1" parent="1">
                    <mxGeometry x="400" y="470" width="82.5" height="30" as="geometry"/>
                </mxCell>
                <mxCell id="197" value="pp: Model.Pump" style="html=1;" vertex="1" parent="1">
                    <mxGeometry x="400" y="260" width="82.5" height="30" as="geometry"/>
                </mxCell>
                <mxCell id="198" value="op_input: Model.Pipe" style="html=1;" vertex="1" parent="1">
                    <mxGeometry x="742.5" y="260" width="82.5" height="30" as="geometry"/>
                </mxCell>
                <mxCell id="199" value="op_output: Model.Pipe" style="html=1;" vertex="1" parent="1">
                    <mxGeometry x="742.5" y="700" width="97.5" height="30" as="geometry"/>
                </mxCell>
                <mxCell id="200" value="np_input: Model.Pipe" style="html=1;" vertex="1" parent="1">
                    <mxGeometry x="60" y="700" width="90" height="30" as="geometry"/>
                </mxCell>
                <mxCell id="201" value="np_output: Model.Pipe" style="html=1;" vertex="1" parent="1">
                    <mxGeometry x="50" y="260" width="92.5" height="30" as="geometry"/>
                </mxCell>
                <mxCell id="202" value="m: Model.Mechanic" style="html=1;" vertex="1" parent="1">
                    <mxGeometry x="400" y="630" width="82.5" height="30" as="geometry"/>
                </mxCell>
                <mxCell id="203" value="c: Model.Cistern" style="html=1;" vertex="1" parent="1">
                    <mxGeometry x="50" y="470" width="82.5" height="30" as="geometry"/>
                </mxCell>
                <mxCell id="204" value="s: Model.Spring" style="html=1;" vertex="1" parent="1">
                    <mxGeometry x="742.5" y="470" width="82.5" height="30" as="geometry"/>
                </mxCell>
                <mxCell id="205" style="rounded=0;orthogonalLoop=1;jettySize=auto;html=1;exitX=0;exitY=0;exitDx=0;exitDy=0;endArrow=none;endFill=0;entryX=1;entryY=1;entryDx=0;entryDy=0;" edge="1" parent="1" source="196" target="201">
                    <mxGeometry relative="1" as="geometry">
                        <Array as="points">
                            <mxPoint x="330" y="470"/>
                            <mxPoint x="330" y="290"/>
                        </Array>
                        <mxPoint x="520" y="579.95" as="sourcePoint"/>
                        <mxPoint x="705" y="299.95" as="targetPoint"/>
                    </mxGeometry>
                </mxCell>
                <mxCell id="206" value="" style="endArrow=classic;html=1;rounded=0;" edge="1" parent="1">
                    <mxGeometry width="50" height="50" relative="1" as="geometry">
                        <mxPoint x="192.5" y="279.6" as="sourcePoint"/>
                        <mxPoint x="150" y="279.43000000000006" as="targetPoint"/>
                    </mxGeometry>
                </mxCell>
                <mxCell id="207" value="&lt;font style=&quot;font-size: 9px;&quot;&gt;1.7. &amp;lt;&amp;lt;create&amp;gt;&amp;gt;&lt;/font&gt;" style="text;html=1;align=center;verticalAlign=middle;resizable=0;points=[];autosize=1;strokeColor=none;fillColor=none;fontSize=10;" vertex="1" parent="1">
                    <mxGeometry x="137.5" y="240" width="90" height="30" as="geometry"/>
                </mxCell>
                <mxCell id="208" value="" style="endArrow=classic;html=1;rounded=0;" edge="1" parent="1">
                    <mxGeometry width="50" height="50" relative="1" as="geometry">
                        <mxPoint x="239" y="479.72" as="sourcePoint"/>
                        <mxPoint x="196" y="479.72" as="targetPoint"/>
                    </mxGeometry>
                </mxCell>
                <mxCell id="209" value="" style="endArrow=classic;html=1;rounded=0;" edge="1" parent="1">
                    <mxGeometry width="50" height="50" relative="1" as="geometry">
                        <mxPoint x="280" y="690" as="sourcePoint"/>
                        <mxPoint x="220" y="689.8299999999999" as="targetPoint"/>
                    </mxGeometry>
                </mxCell>
                <mxCell id="210" value="" style="endArrow=classic;html=1;rounded=0;" edge="1" parent="1">
                    <mxGeometry width="50" height="50" relative="1" as="geometry">
                        <mxPoint x="430" y="560" as="sourcePoint"/>
                        <mxPoint x="430" y="610" as="targetPoint"/>
                    </mxGeometry>
                </mxCell>
                <mxCell id="211" value="" style="endArrow=classic;html=1;rounded=0;" edge="1" parent="1">
                    <mxGeometry width="50" height="50" relative="1" as="geometry">
                        <mxPoint x="690" y="690" as="sourcePoint"/>
                        <mxPoint x="750" y="690" as="targetPoint"/>
                    </mxGeometry>
                </mxCell>
                <mxCell id="212" value="" style="endArrow=classic;html=1;rounded=0;" edge="1" parent="1">
                    <mxGeometry width="50" height="50" relative="1" as="geometry">
                        <mxPoint x="655" y="479.43000000000006" as="sourcePoint"/>
                        <mxPoint x="705" y="479.43000000000006" as="targetPoint"/>
                    </mxGeometry>
                </mxCell>
                <mxCell id="213" value="" style="endArrow=classic;html=1;rounded=0;" edge="1" parent="1">
                    <mxGeometry width="50" height="50" relative="1" as="geometry">
                        <mxPoint x="660" y="274.71000000000004" as="sourcePoint"/>
                        <mxPoint x="720" y="274.71000000000004" as="targetPoint"/>
                    </mxGeometry>
                </mxCell>
                <mxCell id="214" value="" style="endArrow=classic;html=1;rounded=0;" edge="1" parent="1">
                    <mxGeometry width="50" height="50" relative="1" as="geometry">
                        <mxPoint x="435" y="400" as="sourcePoint"/>
                        <mxPoint x="435" y="340" as="targetPoint"/>
                    </mxGeometry>
                </mxCell>
                <mxCell id="215" value="&lt;font style=&quot;font-size: 9px;&quot;&gt;1.5. &amp;lt;&amp;lt;create&amp;gt;&amp;gt;&lt;/font&gt;" style="text;html=1;align=center;verticalAlign=middle;resizable=0;points=[];autosize=1;strokeColor=none;fillColor=none;fontSize=10;" vertex="1" parent="1">
                    <mxGeometry x="645" y="240" width="90" height="30" as="geometry"/>
                </mxCell>
                <mxCell id="216" value="&lt;font style=&quot;font-size: 9px;&quot;&gt;1.4. &amp;lt;&amp;lt;create&amp;gt;&amp;gt;&lt;/font&gt;" style="text;html=1;align=center;verticalAlign=middle;resizable=0;points=[];autosize=1;strokeColor=none;fillColor=none;fontSize=10;rotation=-90;" vertex="1" parent="1">
                    <mxGeometry x="385" y="370" width="90" height="30" as="geometry"/>
                </mxCell>
                <mxCell id="217" value="&lt;font style=&quot;font-size: 9px;&quot;&gt;1.2. &amp;lt;&amp;lt;create&amp;gt;&amp;gt;&lt;/font&gt;" style="text;html=1;align=center;verticalAlign=middle;resizable=0;points=[];autosize=1;strokeColor=none;fillColor=none;fontSize=10;" vertex="1" parent="1">
                    <mxGeometry x="180" y="480" width="90" height="30" as="geometry"/>
                </mxCell>
                <mxCell id="218" value="&lt;font style=&quot;font-size: 9px;&quot;&gt;1.3. &amp;lt;&amp;lt;create&amp;gt;&amp;gt;&lt;/font&gt;" style="text;html=1;align=center;verticalAlign=middle;resizable=0;points=[];autosize=1;strokeColor=none;fillColor=none;fontSize=10;" vertex="1" parent="1">
                    <mxGeometry x="627.5" y="480" width="90" height="30" as="geometry"/>
                </mxCell>
                <mxCell id="219" value="&lt;font style=&quot;font-size: 9px;&quot;&gt;1.1. &amp;lt;&amp;lt;create&amp;gt;&amp;gt;&lt;/font&gt;" style="text;html=1;align=center;verticalAlign=middle;resizable=0;points=[];autosize=1;strokeColor=none;fillColor=none;fontSize=10;rotation=-90;" vertex="1" parent="1">
                    <mxGeometry x="370" y="570" width="90" height="30" as="geometry"/>
                </mxCell>
                <mxCell id="220" value="&lt;font style=&quot;font-size: 9px;&quot;&gt;1.8. &amp;lt;&amp;lt;create&amp;gt;&amp;gt;&lt;/font&gt;" style="text;html=1;align=center;verticalAlign=middle;resizable=0;points=[];autosize=1;strokeColor=none;fillColor=none;fontSize=10;" vertex="1" parent="1">
                    <mxGeometry x="205" y="660" width="90" height="30" as="geometry"/>
                </mxCell>
                <mxCell id="221" value="&lt;font style=&quot;font-size: 9px;&quot;&gt;1.6. &amp;lt;&amp;lt;create&amp;gt;&amp;gt;&lt;/font&gt;" style="text;html=1;align=center;verticalAlign=middle;resizable=0;points=[];autosize=1;strokeColor=none;fillColor=none;fontSize=10;" vertex="1" parent="1">
                    <mxGeometry x="675" y="660" width="90" height="30" as="geometry"/>
                </mxCell>
                <mxCell id="222" value="&lt;font style=&quot;font-size: 9px;&quot;&gt;3.1. AddPipe(op_output)&lt;/font&gt;" style="text;html=1;align=center;verticalAlign=middle;resizable=0;points=[];autosize=1;strokeColor=none;fillColor=none;fontSize=10;" vertex="1" parent="1">
                    <mxGeometry x="165" y="530" width="120" height="30" as="geometry"/>
                </mxCell>
                <mxCell id="223" value="" style="endArrow=classic;html=1;rounded=0;" edge="1" parent="1">
                    <mxGeometry width="50" height="50" relative="1" as="geometry">
                        <mxPoint x="239" y="530" as="sourcePoint"/>
                        <mxPoint x="196" y="530" as="targetPoint"/>
                    </mxGeometry>
                </mxCell>
                <mxCell id="224" value="" style="endArrow=classic;html=1;rounded=0;" edge="1" parent="1">
                    <mxGeometry width="50" height="50" relative="1" as="geometry">
                        <mxPoint x="670" y="540" as="sourcePoint"/>
                        <mxPoint x="727" y="540.29" as="targetPoint"/>
                    </mxGeometry>
                </mxCell>
                <mxCell id="225" value="&lt;font style=&quot;font-size: 9px;&quot;&gt;2.1. AddPipe(op_input)&lt;/font&gt;" style="text;html=1;align=center;verticalAlign=middle;resizable=0;points=[];autosize=1;strokeColor=none;fillColor=none;fontSize=10;" vertex="1" parent="1">
                    <mxGeometry x="627.5" y="540" width="120" height="30" as="geometry"/>
                </mxCell>
                <mxCell id="226" value="" style="endArrow=classic;html=1;rounded=0;" edge="1" parent="1">
                    <mxGeometry width="50" height="50" relative="1" as="geometry">
                        <mxPoint x="239" y="450" as="sourcePoint"/>
                        <mxPoint x="196" y="450" as="targetPoint"/>
                    </mxGeometry>
                </mxCell>
                <mxCell id="227" value="&lt;font style=&quot;font-size: 9px;&quot;&gt;5.1. AddPipe(np_output)&lt;/font&gt;" style="text;html=1;align=center;verticalAlign=middle;resizable=0;points=[];autosize=1;strokeColor=none;fillColor=none;fontSize=10;" vertex="1" parent="1">
                    <mxGeometry x="150" y="420" width="120" height="30" as="geometry"/>
                </mxCell>
                <mxCell id="228" value="&lt;font style=&quot;font-size: 9px;&quot;&gt;4.1. AddPipe(np_input)&lt;/font&gt;" style="text;html=1;align=center;verticalAlign=middle;resizable=0;points=[];autosize=1;strokeColor=none;fillColor=none;fontSize=10;" vertex="1" parent="1">
                    <mxGeometry x="627.5" y="410" width="120" height="30" as="geometry"/>
                </mxCell>
                <mxCell id="229" value="" style="endArrow=classic;html=1;rounded=0;" edge="1" parent="1">
                    <mxGeometry width="50" height="50" relative="1" as="geometry">
                        <mxPoint x="665" y="440" as="sourcePoint"/>
                        <mxPoint x="722" y="440.28999999999996" as="targetPoint"/>
                    </mxGeometry>
                </mxCell>
                <mxCell id="230" value="" style="endArrow=classic;html=1;rounded=0;" edge="1" parent="1">
                    <mxGeometry width="50" height="50" relative="1" as="geometry">
                        <mxPoint x="390" y="370" as="sourcePoint"/>
                        <mxPoint x="390" y="329.8299999999999" as="targetPoint"/>
                    </mxGeometry>
                </mxCell>
                <mxCell id="231" value="" style="endArrow=classic;html=1;rounded=0;" edge="1" parent="1">
                    <mxGeometry width="50" height="50" relative="1" as="geometry">
                        <mxPoint x="357.5" y="280" as="sourcePoint"/>
                        <mxPoint x="392.5" y="280" as="targetPoint"/>
                    </mxGeometry>
                </mxCell>
                <mxCell id="232" value="" style="endArrow=classic;html=1;rounded=0;" edge="1" parent="1">
                    <mxGeometry width="50" height="50" relative="1" as="geometry">
                        <mxPoint x="490" y="370" as="sourcePoint"/>
                        <mxPoint x="490" y="330" as="targetPoint"/>
                    </mxGeometry>
                </mxCell>
                <mxCell id="233" value="" style="endArrow=classic;html=1;rounded=0;" edge="1" parent="1">
                    <mxGeometry width="50" height="50" relative="1" as="geometry">
                        <mxPoint x="540" y="274.79999999999995" as="sourcePoint"/>
                        <mxPoint x="510" y="274.79999999999995" as="targetPoint"/>
                    </mxGeometry>
                </mxCell>
                <mxCell id="234" value="&lt;font style=&quot;font-size: 9px;&quot;&gt;5.3. AddPipe(np_output)&lt;/font&gt;" style="text;html=1;align=center;verticalAlign=middle;resizable=0;points=[];autosize=1;strokeColor=none;fillColor=none;fontSize=10;rotation=0;" vertex="1" parent="1">
                    <mxGeometry x="280" y="250" width="120" height="30" as="geometry"/>
                </mxCell>
                <mxCell id="235" value="&lt;font style=&quot;font-size: 9px;&quot;&gt;4.3. AddPipe(np_input)&lt;/font&gt;" style="text;html=1;align=center;verticalAlign=middle;resizable=0;points=[];autosize=1;strokeColor=none;fillColor=none;fontSize=10;rotation=0;" vertex="1" parent="1">
                    <mxGeometry x="480" y="250" width="120" height="30" as="geometry"/>
                </mxCell>
                <mxCell id="236" value="&lt;font style=&quot;font-size: 9px;&quot;&gt;3.3. AddPipe(op_output)&lt;/font&gt;" style="text;html=1;align=center;verticalAlign=middle;resizable=0;points=[];autosize=1;strokeColor=none;fillColor=none;fontSize=10;rotation=-90;" vertex="1" parent="1">
                    <mxGeometry x="315" y="330" width="120" height="30" as="geometry"/>
                </mxCell>
                <mxCell id="237" value="&lt;font style=&quot;font-size: 9px;&quot;&gt;2.3. AddPipe(op_input)&lt;/font&gt;" style="text;html=1;align=center;verticalAlign=middle;resizable=0;points=[];autosize=1;strokeColor=none;fillColor=none;fontSize=10;rotation=-90;" vertex="1" parent="1">
                    <mxGeometry x="445" y="330" width="120" height="30" as="geometry"/>
                </mxCell>
                <mxCell id="238" value="" style="endArrow=classic;html=1;rounded=0;" edge="1" parent="1">
                    <mxGeometry width="50" height="50" relative="1" as="geometry">
                        <mxPoint x="191.25" y="330.1700000000002" as="sourcePoint"/>
                        <mxPoint x="148.75" y="330" as="targetPoint"/>
                    </mxGeometry>
                </mxCell>
                <mxCell id="239" value="&lt;font style=&quot;font-size: 9px;&quot;&gt;5.4. AddWaterNode(pp)&lt;/font&gt;" style="text;html=1;align=center;verticalAlign=middle;resizable=0;points=[];autosize=1;strokeColor=none;fillColor=none;fontSize=10;" vertex="1" parent="1">
                    <mxGeometry x="110" y="300" width="120" height="30" as="geometry"/>
                </mxCell>
                <mxCell id="240" value="" style="endArrow=classic;html=1;rounded=0;" edge="1" parent="1">
                    <mxGeometry width="50" height="50" relative="1" as="geometry">
                        <mxPoint x="192.5" y="390.1700000000002" as="sourcePoint"/>
                        <mxPoint x="150" y="390" as="targetPoint"/>
                    </mxGeometry>
                </mxCell>
                <mxCell id="241" value="&lt;font style=&quot;font-size: 9px;&quot;&gt;5.2. AddWaterNode(c)&lt;/font&gt;" style="text;html=1;align=center;verticalAlign=middle;resizable=0;points=[];autosize=1;strokeColor=none;fillColor=none;fontSize=10;" vertex="1" parent="1">
                    <mxGeometry x="120" y="360" width="110" height="30" as="geometry"/>
                </mxCell>
                <mxCell id="242" value="" style="endArrow=classic;html=1;rounded=0;" edge="1" parent="1">
                    <mxGeometry width="50" height="50" relative="1" as="geometry">
                        <mxPoint x="670" y="360" as="sourcePoint"/>
                        <mxPoint x="730" y="360" as="targetPoint"/>
                    </mxGeometry>
                </mxCell>
                <mxCell id="243" value="" style="endArrow=classic;html=1;rounded=0;" edge="1" parent="1">
                    <mxGeometry width="50" height="50" relative="1" as="geometry">
                        <mxPoint x="730" y="400" as="sourcePoint"/>
                        <mxPoint x="790" y="400" as="targetPoint"/>
                    </mxGeometry>
                </mxCell>
                <mxCell id="244" value="&lt;font style=&quot;font-size: 9px;&quot;&gt;2.4. AddWaterNode(pp)&lt;/font&gt;" style="text;html=1;align=center;verticalAlign=middle;resizable=0;points=[];autosize=1;strokeColor=none;fillColor=none;fontSize=10;" vertex="1" parent="1">
                    <mxGeometry x="635" y="330" width="120" height="30" as="geometry"/>
                </mxCell>
                <mxCell id="245" value="&lt;font style=&quot;font-size: 9px;&quot;&gt;2.2. AddWaterNode(s)&lt;/font&gt;" style="text;html=1;align=center;verticalAlign=middle;resizable=0;points=[];autosize=1;strokeColor=none;fillColor=none;fontSize=10;" vertex="1" parent="1">
                    <mxGeometry x="717.5" y="370" width="110" height="30" as="geometry"/>
                </mxCell>
                <mxCell id="246" value="" style="endArrow=classic;html=1;rounded=0;" edge="1" parent="1">
                    <mxGeometry width="50" height="50" relative="1" as="geometry">
                        <mxPoint x="670" y="644.6599999999999" as="sourcePoint"/>
                        <mxPoint x="730" y="644.6599999999999" as="targetPoint"/>
                    </mxGeometry>
                </mxCell>
                <mxCell id="247" value="" style="endArrow=classic;html=1;rounded=0;" edge="1" parent="1">
                    <mxGeometry width="50" height="50" relative="1" as="geometry">
                        <mxPoint x="742.5" y="599.3100000000002" as="sourcePoint"/>
                        <mxPoint x="802.5" y="599.3100000000002" as="targetPoint"/>
                    </mxGeometry>
                </mxCell>
                <mxCell id="248" value="" style="endArrow=classic;html=1;rounded=0;" edge="1" parent="1">
                    <mxGeometry width="50" height="50" relative="1" as="geometry">
                        <mxPoint x="270" y="644.8299999999999" as="sourcePoint"/>
                        <mxPoint x="210" y="644.6599999999999" as="targetPoint"/>
                    </mxGeometry>
                </mxCell>
                <mxCell id="249" value="" style="endArrow=classic;html=1;rounded=0;" edge="1" parent="1">
                    <mxGeometry width="50" height="50" relative="1" as="geometry">
                        <mxPoint x="140" y="590.1700000000003" as="sourcePoint"/>
                        <mxPoint x="80" y="590" as="targetPoint"/>
                    </mxGeometry>
                </mxCell>
                <mxCell id="250" value="&lt;font style=&quot;font-size: 9px;&quot;&gt;4.4. AddWaterNode(pp)&lt;/font&gt;" style="text;html=1;align=center;verticalAlign=middle;resizable=0;points=[];autosize=1;strokeColor=none;fillColor=none;fontSize=10;" vertex="1" parent="1">
                    <mxGeometry x="45" y="560" width="120" height="30" as="geometry"/>
                </mxCell>
                <mxCell id="251" value="&lt;font style=&quot;font-size: 9px;&quot;&gt;3.4. AddWaterNode(pp)&lt;/font&gt;" style="text;html=1;align=center;verticalAlign=middle;resizable=0;points=[];autosize=1;strokeColor=none;fillColor=none;fontSize=10;" vertex="1" parent="1">
                    <mxGeometry x="685" y="570" width="120" height="30" as="geometry"/>
                </mxCell>
                <mxCell id="252" value="&lt;font style=&quot;font-size: 9px;&quot;&gt;3.2. AddWaterNode(c)&lt;/font&gt;" style="text;html=1;align=center;verticalAlign=middle;resizable=0;points=[];autosize=1;strokeColor=none;fillColor=none;fontSize=10;" vertex="1" parent="1">
                    <mxGeometry x="640" y="620" width="110" height="30" as="geometry"/>
                </mxCell>
                <mxCell id="253" value="&lt;font style=&quot;font-size: 9px;&quot;&gt;4.2. AddWaterNode(s)&lt;/font&gt;" style="text;html=1;align=center;verticalAlign=middle;resizable=0;points=[];autosize=1;strokeColor=none;fillColor=none;fontSize=10;" vertex="1" parent="1">
                    <mxGeometry x="190" y="620" width="110" height="30" as="geometry"/>
                </mxCell>
            </root>
        </mxGraphModel>
    </diagram>
</mxfile>